<svg xmlns="http://www.w3.org/2000/svg" viewBox="0 0 25 14.58"><path d="M20.75 8.36c-.41-.51-.29-.73 0-1.19 0 0 3.34-4.62 3.68-6.18.17-.57 0-1-.82-1h-2.74a1.17 1.17 0 00-1.18.76 22.51 22.51 0 01-3.37 5.49c-.63.63-.92.83-1.27.83-.17 0-.44-.2-.44-.77V1c0-.68-.19-1-.77-1h-4.3a.65.65 0 00-.69.62c0 .64 1 .79 1.08 2.62v4c0 .87-.15 1-.5 1C8.5 8.22 6.24 4.87 4.91 1c-.27-.7-.54-1-1.24-1H.94C.16 0 0 .36 0 .76 0 1.47.93 5 4.32 9.67c2.26 3.19 5.44 4.91 8.34 4.91 1.74 0 1.95-.38 1.95-1 0-3-.15-3.33.72-3.33.4 0 1.1.2 2.72 1.74 1.86 1.82 2.17 2.63 3.21 2.63H24c.78 0 1.17-.38 1-1.14-.58-1.63-4.1-4.9-4.25-5.12z" fill="#3d404e"/></svg>