<svg xmlns="http://www.w3.org/2000/svg" viewBox="0 0 16.01 16"><path d="M14.65 1.35a4.36 4.36 0 00-6.16-.15l-.15.15-7.33 7.73a3.74 3.74 0 000 5.12 3.31 3.31 0 004.68.13l.13-.13 6.66-7a2.4 2.4 0 000-3.29 2.14 2.14 0 00-3-.11 1.14 1.14 0 00-.11.11L3.01 10.6a.62.62 0 000 .86.56.56 0 00.79 0l6.36-6.69a1 1 0 011.41-.09l.09.09a1.16 1.16 0 010 1.54l-6.65 7.03a2.2 2.2 0 01-3.11.12l-.12-.12a2.49 2.49 0 010-3.38l7.38-7.75a3.26 3.26 0 014.61-.14 1.85 1.85 0 01.14.14 3.65 3.65 0 010 5l-7.36 7.72a.63.63 0 00-.06.86.57.57 0 00.8.08l.06-.06 7.35-7.73a4.9 4.9 0 00-.05-6.73z" fill="currentColor"/></svg>
