<svg xmlns="http://www.w3.org/2000/svg" viewBox="0 0 25 25"><path fill="currentColor" d="M12.5 8.33a4.17 4.17 0 104.17 4.16 4.16 4.16 0 00-4.17-4.16z"/><path fill="currentColor" d="M24.92 7.35C24.71 3 22.36.3 17.65.08c-2.3-.11-8-.1-10.29 0a7.44 7.44 0 00-5.25 2C-.29 4.5 0 7.74 0 12.49s-.27 8 2.1 10.4S7.81 25 12.5 25s6.48 0 8.19-.66c2.31-.9 4.06-3 4.23-6.69.08-2.31.08-8 0-10.3zM12.5 18.91a6.42 6.42 0 116.42-6.42 6.41 6.41 0 01-6.42 6.42zm6.67-11.58a1.5 1.5 0 111.5-1.5 1.5 1.5 0 01-1.5 1.5z"/></svg>
