<svg xmlns="http://www.w3.org/2000/svg" viewBox="0 0 150.42 48.64"><path fill="currentColor" d="M13.2 26l-5.28-7v10H4V5.28A6.9 6.9 0 003.34 2 2.58 2.58 0 00.88.88H0V0h4a5.51 5.51 0 012.4.42 2.45 2.45 0 011.17 1.52 11.89 11.89 0 01.35 3.34v13l5.5-7a8.82 8.82 0 012.42-2.14 6.67 6.67 0 013.3-.72h1.32v1.1a5.67 5.67 0 00-2.29.48 4.94 4.94 0 00-1.89 1.5l-4.84 6.1 5.5 7a13 13 0 002.4 2.51 5.53 5.53 0 002.44 1.05V29a5.33 5.33 0 01-2.2.44A7.79 7.79 0 0113.2 26zM31 28.05a9.15 9.15 0 01-3.34-3.9 12.82 12.82 0 01-1.14-5.45 12.86 12.86 0 011.14-5.46A9.12 9.12 0 0131 9.35a9.36 9.36 0 015.2-1.43 9.35 9.35 0 015.19 1.43 9.12 9.12 0 013.34 3.89 12.86 12.86 0 011.14 5.46 12.82 12.82 0 01-1.14 5.45 9.15 9.15 0 01-3.34 3.9 9.35 9.35 0 01-5.19 1.43 9.36 9.36 0 01-5.2-1.43zm8.08-1.52A7.71 7.71 0 0041 23.27a14.33 14.33 0 00.68-4.57 14.44 14.44 0 00-.68-4.58 7.67 7.67 0 00-1.93-3.25 4.09 4.09 0 00-5.77 0 7.67 7.67 0 00-1.93 3.25 14.44 14.44 0 00-.68 4.58 14.33 14.33 0 00.68 4.57 7.71 7.71 0 001.93 3.26 4.09 4.09 0 005.77 0zm14.64 1.67l11.44-18.08H60.1a6.81 6.81 0 00-4.11 1 3.43 3.43 0 00-1.39 2.93h-.88v-2.2q0-3.53 3.74-3.52h13.42L59 27.28h11.88V29H53.72zm26.35-14.56a6.92 6.92 0 00-.61-3.32A2.6 2.6 0 0077 9.24h-.88v-.88h4a5.63 5.63 0 012.49.44 2.63 2.63 0 011.25 1.32H84a7.56 7.56 0 012.4-1.56 8.19 8.19 0 013.32-.64 8.09 8.09 0 015.39 1.76c1.39 1.17 2.09 3.23 2.09 6.16V29h-4V15.84a6.31 6.31 0 00-1.38-4.51 4.65 4.65 0 00-3.39-1.43A5.93 5.93 0 0084 12.23V29h-4zm30.23 14.41a9 9 0 01-3.13-3.87 13.77 13.77 0 01-1-5.48 13.81 13.81 0 011-5.46 9.1 9.1 0 013.06-3.89 7.9 7.9 0 014.69-1.43q4.44 0 6.62 2.49t2.18 7.19l-.09 1.76H110.3a10.59 10.59 0 001.58 6 5 5 0 004.36 2.33 6.63 6.63 0 003.5-.88 9.36 9.36 0 002.66-2.64l.88.66a9.59 9.59 0 01-3.39 3.52 9 9 0 01-4.53 1.1 8.7 8.7 0 01-5.06-1.4zm9.24-10.45a12.13 12.13 0 00-1.15-5.9 3.73 3.73 0 00-3.47-2 3.33 3.33 0 00-2.38 1 7 7 0 00-1.65 2.84 13.07 13.07 0 00-.59 4.05zm14.17-4.18a11.76 11.76 0 00-2-3.45 3.7 3.7 0 00-2.55-1.08V8h.64a8.4 8.4 0 015.08 1.12 9.11 9.11 0 013.25 4.34l4 9.46 6.16-14.52h2.2l-9 21.12h-.88zM30.55 40.94a2.23 2.23 0 00-.19-1.06.83.83 0 00-.79-.34h-.28v-.28h1.26a1.87 1.87 0 01.81.14.8.8 0 01.38.49h.07a2 2 0 01.72-.55 2.66 2.66 0 011.17-.22 2.1 2.1 0 011.86 1 4.29 4.29 0 01.66 2.46 4.11 4.11 0 01-.68 2.42 2.25 2.25 0 01-2 1 3.85 3.85 0 01-.94-.11 5.38 5.38 0 01-.81-.31v2.92h-1.24zm3.92 3.69a4.39 4.39 0 00.42-2.08 4.59 4.59 0 00-.4-2.08 1.3 1.3 0 00-1.21-.79 1.67 1.67 0 00-1.47.84V45c.28.13.52.23.73.31a1.91 1.91 0 00.6.11 1.41 1.41 0 001.33-.79zM39 38.28a2.23 2.23 0 00-.19-1.06.82.82 0 00-.79-.34h-.28v-.28H39a1.74 1.74 0 01.78.13.77.77 0 01.37.48 3.63 3.63 0 01.11 1.07v1.54a2.44 2.44 0 01.77-.5 2.69 2.69 0 011-.2 2.54 2.54 0 011.72.56 2.45 2.45 0 01.66 2v4.2h-1.22v-4.2a2 2 0 00-.44-1.44 1.47 1.47 0 00-1.1-.45 1.87 1.87 0 00-1.4.74v5.35H39zm9.57 7.24a2.8 2.8 0 01-1.06-1.24 4.25 4.25 0 010-3.47 2.91 2.91 0 011.06-1.24 3 3 0 011.65-.45 2.87 2.87 0 012.72 1.69 4.36 4.36 0 010 3.47 2.82 2.82 0 01-1.07 1.24 2.88 2.88 0 01-1.65.46 2.92 2.92 0 01-1.65-.46zm2.57-.52a2.47 2.47 0 00.62-1 4.75 4.75 0 00.24-1.45 4.81 4.81 0 00-.21-1.46 2.43 2.43 0 00-.62-1 1.27 1.27 0 00-.92-.38 1.25 1.25 0 00-.91.38 2.33 2.33 0 00-.62 1 4.52 4.52 0 00-.22 1.46 4.46 4.46 0 00.19 1.45 2.37 2.37 0 00.62 1 1.29 1.29 0 00.91.38 1.31 1.31 0 00.92-.38zm5.63.53a1.91 1.91 0 01-.44-1.37v-4.34h-1v-.56h1V38l.7-.84h.56v2.1h1.68v.56h-1.68v4.34c0 .84.32 1.26 1 1.26a2.19 2.19 0 00.56-.07 2.89 2.89 0 00.49-.21l.14.28a3.59 3.59 0 01-.72.4A2.89 2.89 0 0158 46a1.67 1.67 0 01-1.23-.47zm6.23-.01a2.86 2.86 0 01-1.06-1.24 4.25 4.25 0 010-3.47 2.84 2.84 0 012.71-1.69 3 3 0 011.66.45 3 3 0 011.06 1.24 4.36 4.36 0 010 3.47 2.86 2.86 0 01-1.06 1.24 3.21 3.21 0 01-3.31 0zm2.53-.52a2.47 2.47 0 00.62-1 4.75 4.75 0 00.21-1.45 4.81 4.81 0 00-.21-1.46 2.43 2.43 0 00-.62-1 1.27 1.27 0 00-.92-.38 1.25 1.25 0 00-.91.38 2.43 2.43 0 00-.62 1 4.81 4.81 0 00-.22 1.46 4.74 4.74 0 00.22 1.45 2.47 2.47 0 00.62 1 1.29 1.29 0 00.91.38 1.31 1.31 0 00.92-.38zm5.11 3.12a1.8 1.8 0 01-.83-1.65 1.6 1.6 0 01.43-1.12 2.55 2.55 0 011.11-.7.93.93 0 01-.56-.84.72.72 0 01.12-.44 2.57 2.57 0 01.37-.33 1.93 1.93 0 01-.75-.7 2.06 2.06 0 01-.3-1.12c0-1.4.88-2.1 2.66-2.1h2.59v.35l-.91.14v.07a1.82 1.82 0 01.7.62 1.54 1.54 0 01.28.92c0 1.4-.89 2.1-2.66 2.1-1 0-1.47.16-1.47.49s.49.49 1.47.49a4.15 4.15 0 012.22.54 2 2 0 010 3.28 5.11 5.11 0 01-4.49 0zm3.58-.44a1.49 1.49 0 00.49-1.21c0-.94-.56-1.47-1.68-1.61l-.77-.07a2 2 0 00-.88.63 1.66 1.66 0 00-.31 1 1.46 1.46 0 00.49 1.21 2.41 2.41 0 002.66 0zm-.32-5.24a1.64 1.64 0 00.39-1.22A1.69 1.69 0 0073.9 40a1.31 1.31 0 00-1-.4 1.41 1.41 0 00-1 .38 1.72 1.72 0 00-.38 1.23 1.68 1.68 0 00.38 1.22 1.38 1.38 0 001 .39 1.34 1.34 0 001-.38zm4.67-1.5a2.23 2.23 0 00-.19-1.06.84.84 0 00-.79-.34h-.14v-.28h1.12a1.9 1.9 0 01.81.14.8.8 0 01.38.49h.07a2.08 2.08 0 01.68-.55 2.11 2.11 0 011-.22 1.41 1.41 0 01.84.21 2 2 0 01.49.63l-.56.42a.9.9 0 00-.45-.32 2 2 0 00-.67-.1 1.54 1.54 0 00-.77.19 1.45 1.45 0 00-.56.51v5.18h-1.26zm7.22 4.85a2 2 0 01-.79-.62 1.87 1.87 0 01-.33-1.17 1.54 1.54 0 011-1.51 6.3 6.3 0 012.59-.45h.42a3.34 3.34 0 00-.38-1.88 1.3 1.3 0 00-1.09-.5 1.78 1.78 0 00-1 .26 1.46 1.46 0 00-.53.93H85a3.76 3.76 0 010-.75 1 1 0 01.3-.51 1.57 1.57 0 01.83-.37 6.2 6.2 0 011.26-.12 2.53 2.53 0 011.8.61 3.14 3.14 0 01.65 2.33v3.78h-.7l-.48-.63h-.07a2 2 0 01-.75.54 2.87 2.87 0 01-1.21.23 2.57 2.57 0 01-.84-.17zm2.31-.67a2.24 2.24 0 00.57-.61v-1.89h-.42a3.06 3.06 0 00-1.64.38 1.18 1.18 0 00-.61 1 1.22 1.22 0 00.39 1 1.37 1.37 0 00.94.35 1.26 1.26 0 00.77-.23zm5.1-4.18a2.21 2.21 0 00-.2-1.06.81.81 0 00-.78-.34h-.28v-.28h1.26a1.93 1.93 0 01.81.14.8.8 0 01.38.49h.07a2 2 0 01.71-.55 2.7 2.7 0 011.18-.22 2.11 2.11 0 011.86 1 4.29 4.29 0 01.66 2.46 4.18 4.18 0 01-.68 2.42 2.25 2.25 0 01-2 1 3.79 3.79 0 01-.94-.11 5.38 5.38 0 01-.81-.31v2.92H93.2zm3.91 3.69a4.26 4.26 0 00.43-2.08 4.45 4.45 0 00-.41-2.08 1.28 1.28 0 00-1.2-.79 1.66 1.66 0 00-1.47.84V45c.28.13.52.23.73.31a1.81 1.81 0 00.6.11 1.39 1.39 0 001.32-.79zm4.53-6.35a2.23 2.23 0 00-.19-1.06.83.83 0 00-.79-.34h-.28v-.28h1.26a1.74 1.74 0 01.78.13.77.77 0 01.37.48 3.63 3.63 0 01.11 1.07v1.54a2.44 2.44 0 01.77-.5 2.69 2.69 0 011-.2 2.56 2.56 0 011.72.56 2.45 2.45 0 01.66 2v4.2h-1.26v-4.2a2 2 0 00-.44-1.44 1.47 1.47 0 00-1.1-.45 1.87 1.87 0 00-1.4.74v5.35h-1.26zm9.48 7.24a2.74 2.74 0 01-1-1.23 4.62 4.62 0 010-3.48 2.93 2.93 0 011-1.24 2.5 2.5 0 011.49-.45 2.65 2.65 0 012.11.79 3.39 3.39 0 01.69 2.29v.56h-4.24a3.34 3.34 0 00.51 1.92 1.58 1.58 0 001.38.74 2.12 2.12 0 001.11-.28 2.94 2.94 0 00.85-.84l.28.21a3.15 3.15 0 01-1.08 1.12 2.9 2.9 0 01-1.44.35 2.73 2.73 0 01-1.66-.46zm2.94-3.32a3.94 3.94 0 00-.36-1.88 1.19 1.19 0 00-1.11-.64 1.07 1.07 0 00-.76.33 2.3 2.3 0 00-.52.9 4 4 0 00-.19 1.29zm4.17-1.26a2.23 2.23 0 00-.19-1.06.82.82 0 00-.79-.34h-.14v-.28h1.12a1.87 1.87 0 01.81.14.8.8 0 01.38.49h.07a2.08 2.08 0 01.68-.55 2.14 2.14 0 011-.22 1.37 1.37 0 01.84.21 2 2 0 01.49.63l-.56.42a.92.92 0 00-.44-.32 2 2 0 00-.68-.1 1.57 1.57 0 00-.77.19 1.45 1.45 0 00-.56.51v5.18h-1.26z"/><circle fill="currentColor" cx="18.51" cy="4.79" r="2.05"/></svg>