<svg id="Слой_2" data-name="Слой 2" xmlns="http://www.w3.org/2000/svg" viewBox="0 0 140 123.05"><defs><style>.cls-1{fill:#3d404e;}.cls-2{fill:#38524f;}</style></defs><title>32 Выпускные фотокниги</title><path class="cls-1" d="M140,96v-7H120.68V84h-2.45v-4.5h-2V84H34.62a8.19,8.19,0,1,1,0-16.37H59.17v-2H34.62a10.19,10.19,0,1,0,0,20.37h84.06v2.92H34.43a13.11,13.11,0,1,1,0-26.22h8.62v-2H34.43A15.1,15.1,0,0,0,27,88.94h-9.9a17.06,17.06,0,0,0,0,34.11H140v-7h-5.52V96Zm-2,25.08H17.05a15.06,15.06,0,0,1,0-30.11H138v3H17.32a12,12,0,1,0,0,24H138Zm-5.52-12.36H20.32v2H132.48V116H17.32a10,10,0,1,1,0-20H132.48Z"/><rect class="cls-1" x="15.28" y="102.14" width="52.67" height="2"/><rect class="cls-1" x="103.44" y="60.72" width="13.79" height="2"/><rect class="cls-1" x="86.66" y="65.65" width="29.35" height="2"/><path class="cls-2" d="M127.5,49.52A6.77,6.77,0,0,0,122,42.87v-8.7L116,31.86l20.14-7.76L74,.14,73.62,0,11.05,24.1l31.1,12h-.36V62.56l.63.25a81.16,81.16,0,0,0,30.57,6,81.23,81.23,0,0,0,30.57-6l.62-.25V36.42l9.09-3.5,6.7,2.61v7.26a6.76,6.76,0,0,0-2.76,12.5L110.77,79.4h19.92l-6.43-24.11A6.77,6.77,0,0,0,127.5,49.52ZM102.18,61.21a78.87,78.87,0,0,1-58.39,0V36.7L73.26,48.05l.36.14,28.56-11ZM73.62,46.05l-57-21.95,57-22,57,22-17.35,6.68L74,15.48l-.72,1.86L110.5,31.85Zm47.11-1.3A4.77,4.77,0,1,1,116,49.52,4.78,4.78,0,0,1,120.73,44.75Zm7.35,32.65h-14.7l5.69-21.33a6.52,6.52,0,0,0,1.66.22,6.59,6.59,0,0,0,1.67-.22Z"/></svg>