<svg id="Слой_2" data-name="Слой 2" xmlns="http://www.w3.org/2000/svg" viewBox="0 0 140 112.06"><defs><style>.cls-1{fill:#38524f;}.cls-2{fill:#3d404e;}</style></defs><title>36 Детские фотокниги</title><path class="cls-1" d="M89.3,4.55A8,8,0,0,0,76,2.88a9.28,9.28,0,0,1-4.87,3.19L66.86,7.13,65.3.91l-1.94.48,1.56,6.24a9,9,0,0,0-2.85-2A8.9,8.9,0,1,0,66.6,17.36,9.53,9.53,0,0,0,67,16.09l1.64,6.55,1.94-.48-1.56-6.22,4.24-1.06a9,9,0,0,1,5.72.49,7.9,7.9,0,0,0,5,.38A8,8,0,0,0,89.3,4.55ZM65.05,11.88a4.92,4.92,0,0,1,.23.81v.07a4.32,4.32,0,0,1-2.71,4.73A4.34,4.34,0,0,1,59.45,9.4,4.25,4.25,0,0,1,61,9.11,4.35,4.35,0,0,1,65.05,11.88Zm-4.11,8.31A6.89,6.89,0,0,1,52.16,11,6.83,6.83,0,0,1,56,7.32a6.93,6.93,0,0,1,2.48-.46,7.05,7.05,0,0,1,1.94.28,6.64,6.64,0,0,0-1.67.39A6.34,6.34,0,0,0,61,19.78a6.22,6.22,0,0,0,.95-.09A7.53,7.53,0,0,1,60.94,20.19ZM87.5,10.57a6,6,0,0,1-7.71,2.95,11.07,11.07,0,0,0-7-.58L68.58,14,67.34,9.07,71.58,8A11.39,11.39,0,0,0,77.5,4.16,5.94,5.94,0,0,1,81.65,2a6,6,0,0,1,5.85,8.55Z"/><path class="cls-2" d="M140,85V78H113.05a15.1,15.1,0,0,0-7.48-28.22h0V44.81h-2.45V28.43h2.45V21.51H34.43A15.1,15.1,0,0,0,27,49.74H19.32v6.92h2.45V73H19.32V78H17.05a17.05,17.05,0,0,0,0,34.1H140v-7h-5.52V85Zm-2-5v3H45.33V80H138ZM101.11,44.81H34.62a8.19,8.19,0,1,1,0-16.38h66.49ZM21.32,36.62A13.12,13.12,0,0,1,34.43,23.51h69.13v2.92H34.62a10.19,10.19,0,1,0,0,20.38h68.94v2.93H34.43A13.12,13.12,0,0,1,21.32,36.62Zm0,15.12h84.25a13.11,13.11,0,1,1,0,26.22H45.33V75h60.05a10.19,10.19,0,0,0,0-20.38H21.32Zm2.45,4.92h81.61a8.19,8.19,0,0,1,0,16.38h-60V62.91H62.91v-2H31.24V73H23.77Zm19.56,6.25V86.15l-5-5.74-5,5.74V62.91ZM21.32,75h9.92V78H21.32Zm116.68,35H17.05a15,15,0,0,1,0-30.1H31.24v3H17.32a12,12,0,0,0,0,24.06H138Zm-5.52-5H17.32a10,10,0,0,1,0-20.06H31.24v6.47l7.05-8,7,8V85h87.15Z"/><rect class="cls-2" x="20.32" y="97.71" width="87.95" height="2"/><rect class="cls-2" x="70.73" y="91.15" width="52.67" height="2"/></svg>