<svg id="Слой_2" data-name="Слой 2" xmlns="http://www.w3.org/2000/svg" viewBox="0 0 139.4 121.33"><defs><style>.cls-1{fill:#3d404e;}.cls-2{fill:#38524f;}</style></defs><title>34 Фотокниги на юбилей</title><polygon class="cls-1" points="68.97 81.5 59.86 81.5 52.8 92.66 52.8 96.36 60.95 83.48 66.99 83.48 66.99 107.04 71.27 107.04 71.27 111.11 66.99 111.11 66.99 119.28 61.47 119.28 61.47 111.11 52.8 111.11 52.8 113.08 59.49 113.08 59.49 121.26 68.97 121.26 68.97 113.08 73.25 113.08 73.25 105.06 68.97 105.06 68.97 81.5"/><path class="cls-1" d="M61.47,89l-1.85,3.21L52.8,103.11V107h8.67Zm-2,16H53.92l5.57-8.84Z"/><path class="cls-1" d="M100.65,99l-.59-.79c-.13-.17-.26-.34-.4-.49A11.87,11.87,0,0,0,90.47,94a13,13,0,0,0-4.5.8l.64-5.51h6.83L92,87.3H84.84L83.59,98.18l1.67-.89A10.92,10.92,0,0,1,90.47,96c3.34,0,5.87,1,7.73,3s2.8,5,2.8,8.7a12.79,12.79,0,0,1-1.43,6.09,9.81,9.81,0,0,1-4,4.09,12.93,12.93,0,0,1-6.31,1.47,13.76,13.76,0,0,1-5.94-1.3,10.34,10.34,0,0,1-4.23-3.56,9.59,9.59,0,0,1-1.56-4.19H83a5.94,5.94,0,0,0,6.2,5,5.59,5.59,0,0,0,4.71-2.22,9.5,9.5,0,0,0,1.57-5.77,8,8,0,0,0-1.84-5.61,6.81,6.81,0,0,0-5.22-2,7.44,7.44,0,0,0-5,1.67l-.34.31-4.6-1.14,2-17.46h8.31l-1.48-2h-8.6L76.31,102l7.33,1.82,1.09-1a5.52,5.52,0,0,1,3.69-1.17,4.82,4.82,0,0,1,3.76,1.4,6.09,6.09,0,0,1,1.32,4.26,7.59,7.59,0,0,1-1.17,4.58,3.66,3.66,0,0,1-3.13,1.43,4.21,4.21,0,0,1-3-1,4.5,4.5,0,0,1-1.34-3l-.09-.89H75.41l0,1a11.57,11.57,0,0,0,2,6.26,12.23,12.23,0,0,0,5,4.24,15.64,15.64,0,0,0,6.78,1.49,14.83,14.83,0,0,0,7.27-1.72,11.89,11.89,0,0,0,4.82-4.89,14.79,14.79,0,0,0,1.66-7A15.35,15.35,0,0,0,100.65,99Z"/><rect class="cls-2" x="6.86" y="111.74" width="15.36" height="2"/><rect class="cls-2" x="6.86" y="107.19" width="15.36" height="2"/><rect class="cls-2" x="32.91" y="111.74" width="11.98" height="2"/><rect class="cls-2" x="32.91" y="107.19" width="11.98" height="2"/><rect class="cls-2" x="6.86" y="17.42" width="15.36" height="2"/><rect class="cls-2" x="32.91" y="7.52" width="11.98" height="2"/><path class="cls-2" d="M139.4,108.08,66.83,10.85l-17,12.68V0H27.08V9.9H0V121.33H49.84V25.1l71.81,96.23ZM27.08,119.33H2V11.9H27.08Zm20.76,0H29.08V2H47.84ZM66.42,13.65l70.18,94-14.54,10.85-70.18-94Z"/><rect class="cls-2" x="57.34" y="23.3" width="11.43" height="2" transform="matrix(0.8, -0.6, 0.6, 0.8, -2.02, 42.53)"/><rect class="cls-2" x="119.68" y="106.82" width="11.42" height="2" transform="matrix(0.8, -0.6, 0.6, 0.8, -39.59, 96.38)"/><rect class="cls-2" x="116.95" y="103.17" width="11.43" height="2" transform="matrix(0.8, -0.6, 0.6, 0.8, -37.95, 94.03)"/></svg>