<svg id="Слой_2" data-name="Слой 2" xmlns="http://www.w3.org/2000/svg" viewBox="0 0 139 93.82"><defs><style>.cls-1,.cls-2{fill:none;stroke-miterlimit:10;stroke-width:2px;}.cls-1{stroke:#3d404e;}.cls-2{stroke:#38524f;}.cls-3{fill:#38524f;}.cls-4{fill:#3d404e;}</style></defs><title>33 33 Фотокниги Инстаграм</title><path class="cls-1" d="M80,92.82"/><path class="cls-1" d="M87.24,92.82"/><path class="cls-1" d="M76.22,92.82"/><path class="cls-2" d="M65.55,24.68"/><path class="cls-3" d="M54.6,54.16H33.68a4.28,4.28,0,0,1-3.53-1.65,4.63,4.63,0,0,1-.61-4.09l6-20.92a7.34,7.34,0,0,1,6.7-5.18H63.15A4.35,4.35,0,0,1,66.73,24a4.6,4.6,0,0,1,.62,4.07L61.3,49A7.36,7.36,0,0,1,54.6,54.16ZM42.24,24.32a5.42,5.42,0,0,0-4.78,3.73L31.46,49a2.61,2.61,0,0,0,.29,2.34,2.34,2.34,0,0,0,1.93.85H54.6a5.42,5.42,0,0,0,4.78-3.74L65.43,27.5a2.59,2.59,0,0,0-.3-2.31,2.38,2.38,0,0,0-2-.87Z"/><path class="cls-3" d="M45.88,48.08a7.52,7.52,0,0,1-6.22-2.86,8.08,8.08,0,0,1-1-7.26c1.51-5.28,7-9.57,12.35-9.57a7.58,7.58,0,0,1,6.22,2.86,8.12,8.12,0,0,1,1,7.26C56.71,43.79,51.18,48.08,45.88,48.08ZM51,30.39c-4.47,0-9.15,3.64-10.43,8.12a6.12,6.12,0,0,0,.73,5.5,5.55,5.55,0,0,0,4.62,2.07c4.46,0,9.14-3.64,10.42-8.12h0a6.12,6.12,0,0,0-.72-5.5A5.58,5.58,0,0,0,51,30.39Z"/><path class="cls-3" d="M60.37,31a2.35,2.35,0,0,1-1.88-.89A2.44,2.44,0,0,1,58.15,28a3.56,3.56,0,0,1,3.24-2.5,2.32,2.32,0,0,1,1.88.89,2.43,2.43,0,0,1,.34,2.16h0A3.55,3.55,0,0,1,60.37,31Zm1-3.54a1.56,1.56,0,0,0-1.32,1.05.49.49,0,0,0,0,.39.34.34,0,0,0,.28.1,1.55,1.55,0,0,0,1.32-1,.52.52,0,0,0,0-.4A.4.4,0,0,0,61.39,27.46Z"/><path class="cls-2" d="M7.06,90.19"/><path class="cls-2" d="M7.9,88.6"/><path class="cls-2" d="M30.27,10.13"/><path class="cls-2" d="M27.58,7.68"/><path class="cls-3" d="M74.79,91.19H10a7.33,7.33,0,0,1-6.41-4.71,4.21,4.21,0,0,1,.32-3.88A3.71,3.71,0,0,1,7,81.09H71.84v2H7a1.73,1.73,0,0,0-1.5.66,2.22,2.22,0,0,0-.08,2A5.38,5.38,0,0,0,10,89.19H74.79Z"/><path class="cls-3" d="M75,91.19a7.37,7.37,0,0,1-6.47-4.71l1.88-.68A5.42,5.42,0,0,0,75,89.19Z"/><path class="cls-3" d="M68.55,86.48a4.17,4.17,0,0,1,.33-3.87,3.74,3.74,0,0,1,3.19-1.52v2a1.84,1.84,0,0,0-1.56.67,2.26,2.26,0,0,0-.08,2Z"/><path class="cls-3" d="M76.9,93.82H10.48c-4,0-8.52-3.29-10-7.34A6.93,6.93,0,0,1,.23,82.2h0L26.42,3.62A5.24,5.24,0,0,1,31.78,0H94.56l.78,3.65L94.69,6.1a2.74,2.74,0,0,0,.47,2.35,2.35,2.35,0,0,0,1.87,1h.68l.28.62,1.68,4.25ZM5.62,80.47a3.54,3.54,0,0,0-3,1.37,4.32,4.32,0,0,0-.21,4c1.18,3.26,4.9,6,8.11,6H75.39L97.56,14.4l-1.2-3a4.4,4.4,0,0,1-2.79-1.69,4.81,4.81,0,0,1-.8-1.62L72,80.47ZM31.78,2a3.26,3.26,0,0,0-3.47,2.27l0,.13L3.46,78.81a6.52,6.52,0,0,1,2.16-.34H70.53L92.43,2Z"/><path class="cls-4" d="M139,73.74V68H121.6a11.43,11.43,0,0,0-.06-18.89h4.27V43.49h-3.5V31.86h3.5V26.22H100.92l-.57,2h23.47v1.65H99.87l-.56,2h21V43.49H96l-.57,2h28.41v1.65H94.94l-.57,2h20.74A9.46,9.46,0,0,1,115.8,68h-.53v0H89l-.57,2h26.72c.23,0,.46,0,.69,0H137v1.73H87.91l-.57,2h45.57V88.1H83.24l-.57,2H137v1.73H82.17l-.57,2H139V88.1h-4.1V73.74Z"/><path class="cls-4" d="M122.77,58.6a7.81,7.81,0,0,0-7.8-7.81H93.9l-.57,2H115a5.82,5.82,0,0,1,0,11.63H90l-.57,2H115A7.81,7.81,0,0,0,122.77,58.6Z"/></svg>