<svg id="Слой_3" data-name="Слой 3" xmlns="http://www.w3.org/2000/svg" viewBox="0 0 139.98 115.59"><defs><style>.cls-1,.cls-2{fill:none;stroke:#38524f;stroke-width:2px;}.cls-1{stroke-miterlimit:10;}.cls-2{stroke-linejoin:bevel;}.cls-3{fill:#38524f;}.cls-4{fill:#3d404e;}</style></defs><title>35 Свадебные фотокниги</title><path class="cls-1" d="M64.26,55.74"/><path class="cls-1" d="M74.37,55.74"/><path class="cls-1" d="M74.58,114.18"/><path class="cls-2" d="M70,39.89"/><path class="cls-3" d="M130,41.6h-8.27l-.24-1.85-.35-.63a37.25,37.25,0,0,0-23.74-9v2a35.22,35.22,0,0,1,22.17,8.34l8.19,60.9a47.85,47.85,0,0,0-43.25-4.58L69.92,102.4,55.33,96.73a47.59,47.59,0,0,0-43.27,4.76l8.22-61.08a35.18,35.18,0,0,1,22.3-8.34v-2a37.24,37.24,0,0,0-23.87,9l-.35.63L18.1,41.6H10l-10,69H.09v5H63.45l.3-.32a8.58,8.58,0,0,1,12.5,0l.3.32h63.36v-5H140ZM11.7,43.6h6.13l-8,59.67,1,1.14H11l.58-.19a45.58,45.58,0,0,1,43-5.62l14.77,5.74.36.07h.36l.36-.07L85.23,98.6a45.86,45.86,0,0,1,43.24,5.62l1.58-1L122,43.6h6.27l9.63,66.59H77.42a10.27,10.27,0,0,0-14.84,0H2.07Zm126.21,70H77.4a10.58,10.58,0,0,0-14.8,0H2.09v-1.4H63.47l.3-.34a8.26,8.26,0,0,1,12.45,0l.3.34h61.39Z"/><path class="cls-4" d="M100.79,71.5h0l-4.08-61L96.63,10C95.57,5.7,92,2.23,87.06.74c-6.33-1.91-13.29,0-17.14,4.48C66.08.71,59.11-1.17,52.78.74c-5.16,1.56-8.87,5.37-9.71,10l0,.53L39.16,70.59a12.26,12.26,0,0,0,.9,6.76c3.09,7.05,28.21,26.13,29.27,26.93l.61.46.6-.46c1.07-.8,26.15-19.88,29.24-26.93A12.3,12.3,0,0,0,100.79,71.5ZM86.48,2.66c4.25,1.28,7.32,4.21,8.2,7.82l0,.24L98.36,65a16.59,16.59,0,0,0-8.77-6c-6.73-2-14.08-.31-18.6,4.09V7.1C74.2,2.76,80.63.89,86.48,2.66ZM69.92,64.2l0,0H70ZM45,11.44l0-.41c.69-3.82,3.87-7,8.31-8.37C59.3.86,65.83,2.81,69,7.28v55.9C64.48,58.69,57.05,56.91,50.25,59a16.66,16.66,0,0,0-8.72,6ZM41.89,76.55a10.4,10.4,0,0,1-.84-4.92h.05l0-.82A10.84,10.84,0,0,1,42,68.08a14,14,0,0,1,8.86-7.2,18.08,18.08,0,0,1,5.22-.77c5.23,0,10.19,2.26,12.94,6.18V101.5C63.38,97.16,44.36,82.17,41.89,76.55Zm56.06,0c-2.17,5-17.73,17.76-27,24.87V66.1C74.7,61,82.2,58.82,89,60.88a14,14,0,0,1,8.86,7.2A10.18,10.18,0,0,1,98,76.55Z"/></svg>