<svg xmlns="http://www.w3.org/2000/svg" viewBox="0 0 25 25"><path d="M21.36 3.63C13.37-4.15.11 1.47.11 12.39a12.32 12.32 0 001.66 6.19L0 25l6.6-1.72A12.47 12.47 0 0025 12.4a12.3 12.3 0 00-3.64-8.77zm-2.72 13.12a3.19 3.19 0 01-2.1 1.48 4.36 4.36 0 01-2-.12c-2.75-.95-4.26-1.63-7.08-5.33-1.44-2-1.87-3.93-.18-5.78a1.55 1.55 0 011.42-.36c.19 0 .45-.08.7.53s.88 2.14 1 2.3a.56.56 0 010 .54c-.58 1.1-1.22 1.18-.92 1.71a9.7 9.7 0 001.73 2.15 8.47 8.47 0 002.5 1.55c.31.14.5.12.68-.08a15 15 0 001-1.21c.3-.44.54-.29 2.83.85v-.08c.31.14.51.22.59.36a2.55 2.55 0 01-.17 1.49z" fill="currentColor"/></svg>
