<?xml version="1.0" encoding="UTF-8"?><!DOCTYPE svg PUBLIC "-//W3C//DTD SVG 1.1//EN" "http://www.w3.org/Graphics/SVG/1.1/DTD/svg11.dtd"><svg xmlns="http://www.w3.org/2000/svg" xmlns:xlink="http://www.w3.org/1999/xlink"><defs><style>.cls-1{fill:#3d404e;}.cls-2{fill:#38524f;}</style><style>.cls-1,.cls-2{fill:none;stroke-miterlimit:10;stroke-width:2px;}.cls-1{stroke:#3d404e;}.cls-2{stroke:#38524f;}.cls-3{fill:#38524f;}.cls-4{fill:#3d404e;}</style><style>.cls-1{fill:#3d404e;}.cls-2{fill:#38524f;}</style><style>.cls-1,.cls-2{fill:none;stroke:#38524f;stroke-width:2px;}.cls-1{stroke-miterlimit:10;}.cls-2{stroke-linejoin:bevel;}.cls-3{fill:#38524f;}.cls-4{fill:#3d404e;}</style><style>.cls-1{fill:#38524f;}.cls-2{fill:#3d404e;}</style></defs><symbol id="06 &#x414;&#x43B;&#x438;&#x43D;&#x43D;&#x430;&#x44F; &#x441;&#x442;&#x440;&#x435;&#x43B;&#x43A;&#x430;" viewBox="0 0 42.51 15.34"><path fill="currentColor" d="M27.32 15.34l3.15-6.5 1.35.65L30.6 12l8.58-4.33-8.58-4.33 1.22 2.51-1.35.65L27.32 0l15.19 7.67-15.19 7.67z"/><path fill="currentColor" d="M0 6.92h28.86v1.5H0z"/></symbol><symbol id="18 VK" viewBox="0 0 25 14.58"><path d="M20.75 8.36c-.41-.51-.29-.73 0-1.19 0 0 3.34-4.62 3.68-6.18.17-.57 0-1-.82-1h-2.74a1.17 1.17 0 00-1.18.76 22.51 22.51 0 01-3.37 5.49c-.63.63-.92.83-1.27.83-.17 0-.44-.2-.44-.77V1c0-.68-.19-1-.77-1h-4.3a.65.65 0 00-.69.62c0 .64 1 .79 1.08 2.62v4c0 .87-.15 1-.5 1C8.5 8.22 6.24 4.87 4.91 1c-.27-.7-.54-1-1.24-1H.94C.16 0 0 .36 0 .76 0 1.47.93 5 4.32 9.67c2.26 3.19 5.44 4.91 8.34 4.91 1.74 0 1.95-.38 1.95-1 0-3-.15-3.33.72-3.33.4 0 1.1.2 2.72 1.74 1.86 1.82 2.17 2.63 3.21 2.63H24c.78 0 1.17-.38 1-1.14-.58-1.63-4.1-4.9-4.25-5.12z" fill="#3d404e"/></symbol><symbol id="19 Google" viewBox="0 0 32 20"><path class="cls-1" d="M29.1 6h-2.92v2.9h-2.9v2.92h2.9v2.9h2.92v-2.9H32V8.9h-2.9zM10 20c5.77 0 9.6-4.05 9.6-9.77a8.13 8.13 0 00-.16-1.66H10V12h5.68A5.42 5.42 0 0110 16.32 6.26 6.26 0 013.81 10 6.26 6.26 0 0110 3.68a5.64 5.64 0 014 1.54l2.71-2.6A9.55 9.55 0 0010 0a10 10 0 000 20z"/></symbol><symbol id="20 &#x413;&#x430;&#x43B;&#x43E;&#x447;&#x43A;&#x430;" viewBox="0 0 10.05 7.31"><path fill="#fff" d="M4.03 7.31L0 3.57l1.02-1.1 2.95 2.74 5-5.21 1.08 1.04-6.02 6.27z"/></symbol><symbol id="23 Telegram" viewBox="0 0 25 20.8"><path d="M9.8 13.7l-.4 5.8c.4 0 .9-.2 1.2-.6l2.7-2.7 5.7 4.2c1.1.6 1.8.2 2.1-1l3.8-17.6c.3-1.6-.6-2.2-1.7-1.7l-22 8.4c-1.5.6-1.5 1.4-.2 1.8L6.7 12l13.1-8.2c.6-.4 1.2-.2.7.2L9.8 13.7z" fill="#38524f"/></symbol><symbol id="arrow-pink" viewBox="0 0 15.19 15.34"><path fill="#3d404e" d="M0 15.34l3.15-6.5 1.35.65L3.29 12l8.57-4.33-8.57-4.33L4.5 5.85l-1.35.65L0 0l15.19 7.67L0 15.34z"/></symbol><symbol id="arrow-top" viewBox="0 0 24.2 24"><path fill="currentColor" d="M0 24L12.1 0l12.1 24-9.8-4.8.6-1.4 5.8 2.8-8.7-17.2-8.7 17.2 5.8-2.8.7 1.4z"/></symbol><symbol id="arrow-white" viewBox="0 0 15.19 15.34"><path fill="#fffcfc" d="M0 15.34l3.15-6.5 1.35.65L3.29 12l8.57-4.33-8.57-4.33L4.5 5.85l-1.35.65L0 0l15.19 7.67L0 15.34z"/></symbol><symbol id="arrow" viewBox="0 0 15.19 15.34"><path fill="currentColor" d="M0 15.34l3.15-6.5 1.35.65L3.29 12l8.57-4.33-8.57-4.33L4.5 5.85l-1.35.65L0 0l15.19 7.67L0 15.34z"/></symbol><symbol id="burger" viewBox="0 0 36 12"><path fill="currentColor" d="M0 0h36v2H0zm0 10h36v2H0z"/></symbol><symbol id="cart" viewBox="0 0 21.2 28"><path fill="currentColor" d="M18.84 12.21L16.57 26H4.63L2.36 12.21h16.48m2.36-2H0L2.93 28h15.34l2.93-17.79zm-4.05-2.02h-2V6.51a4.55 4.55 0 00-9.1 0v1.68h-2V6.51a6.55 6.55 0 0113.1 0z"/><circle fill="currentColor" cx="5.49" cy="14.87" r="1.04"/><circle fill="currentColor" cx="15.71" cy="14.87" r="1.04"/></symbol><symbol id="check-blue" viewBox="0 0 16.65 12.59"><path fill="#bac0dc" d="M5.12 12.59L0 7.47l1.06-1.06 4.06 4.06L15.59 0l1.06 1.06L5.12 12.59z"/></symbol><symbol id="check-green" viewBox="0 0 10.05 7.31"><path fill="#38524f" d="M4.03 7.31L0 3.57l1.02-1.1 2.95 2.74 5-5.21 1.08 1.04-6.02 6.27z"/></symbol><symbol id="check" viewBox="0 0 16.65 12.59"><path fill="currentColor" d="M5.12 12.59L0 7.47l1.06-1.06 4.06 4.06L15.59 0l1.06 1.06L5.12 12.59z"/></symbol><symbol id="circle-fill-green">
<path fill-rule="evenodd" fill="rgb(56, 82, 79)" d="M20.000,-0.000 C31.046,-0.000 40.000,8.954 40.000,20.000 C40.000,31.046 31.046,40.000 20.000,40.000 C8.954,40.000 -0.000,31.046 -0.000,20.000 C-0.000,8.954 8.954,-0.000 20.000,-0.000 Z"/>
</symbol><symbol id="circle-fill-white">
<path fill-rule="evenodd" fill="rgb(255, 252, 252)" d="M20.000,-0.000 C31.046,-0.000 40.000,8.954 40.000,20.000 C40.000,31.046 31.046,40.000 20.000,40.000 C8.954,40.000 -0.000,31.046 -0.000,20.000 C-0.000,8.954 8.954,-0.000 20.000,-0.000 Z"/>
</symbol><symbol id="circle-slide">
<path fill-rule="evenodd" stroke="rgb(198, 197, 200)" stroke-width="2px" stroke-linecap="butt" stroke-linejoin="miter" fill="none" d="M31.000,1.000 C47.568,1.000 61.000,14.431 61.000,31.000 C61.000,47.568 47.568,60.999 31.000,60.999 C14.431,60.999 1.000,47.568 1.000,31.000 C1.000,14.431 14.431,1.000 31.000,1.000 Z"/>
</symbol><symbol id="circle" viewBox="0 0 38.72 40"><path d="M18.72 0A20 20 0 000 13h2.13a18 18 0 110 14H0A20 20 0 1018.72 0z" fill="currentColor"/></symbol><symbol id="clip" viewBox="0 0 16.01 16"><path d="M14.65 1.35a4.36 4.36 0 00-6.16-.15l-.15.15-7.33 7.73a3.74 3.74 0 000 5.12 3.31 3.31 0 004.68.13l.13-.13 6.66-7a2.4 2.4 0 000-3.29 2.14 2.14 0 00-3-.11 1.14 1.14 0 00-.11.11L3.01 10.6a.62.62 0 000 .86.56.56 0 00.79 0l6.36-6.69a1 1 0 011.41-.09l.09.09a1.16 1.16 0 010 1.54l-6.65 7.03a2.2 2.2 0 01-3.11.12l-.12-.12a2.49 2.49 0 010-3.38l7.38-7.75a3.26 3.26 0 014.61-.14 1.85 1.85 0 01.14.14 3.65 3.65 0 010 5l-7.36 7.72a.63.63 0 00-.06.86.57.57 0 00.8.08l.06-.06 7.35-7.73a4.9 4.9 0 00-.05-6.73z" fill="currentColor"/></symbol><symbol id="close" viewBox="0 0 35.41 35.41"><path fill="currentColor" d="M35.41 1.41L34 0 17.71 16.29 1.41 0 0 1.41l16.29 16.3L0 34l1.41 1.41 16.3-16.29L34 35.41 35.41 34 19.12 17.71l16.29-16.3z"/></symbol><symbol id="fb" viewBox="0 0 12.5 25"><path d="M10.22 4.15h2.28v-4A27.7 27.7 0 009.18 0C5.89 0 3.63 2.07 3.63 5.87v3.51H0v4.44h3.63V25h4.45V13.82h3.49l.55-4.44h-4V6.31c0-1.28.35-2.16 2.14-2.16z" fill="currentColor"/></symbol><symbol id="inst" viewBox="0 0 25 25"><path fill="currentColor" d="M12.5 8.33a4.17 4.17 0 104.17 4.16 4.16 4.16 0 00-4.17-4.16z"/><path fill="currentColor" d="M24.92 7.35C24.71 3 22.36.3 17.65.08c-2.3-.11-8-.1-10.29 0a7.44 7.44 0 00-5.25 2C-.29 4.5 0 7.74 0 12.49s-.27 8 2.1 10.4S7.81 25 12.5 25s6.48 0 8.19-.66c2.31-.9 4.06-3 4.23-6.69.08-2.31.08-8 0-10.3zM12.5 18.91a6.42 6.42 0 116.42-6.42 6.41 6.41 0 01-6.42 6.42zm6.67-11.58a1.5 1.5 0 111.5-1.5 1.5 1.5 0 01-1.5 1.5z"/></symbol><symbol id="lk" viewBox="0 0 22.68 27"><path fill="currentColor" d="M11.34 15.06a7.53 7.53 0 117.53-7.53 7.54 7.54 0 01-7.53 7.53zm0-13.06a5.53 5.53 0 105.53 5.53A5.54 5.54 0 0011.34 2z"/><path fill="currentColor" d="M22.68 27h-2A9.34 9.34 0 102 27H0a11.34 11.34 0 1122.68 0z"/></symbol><symbol id="logo" viewBox="0 0 150.42 48.64"><path fill="currentColor" d="M13.2 26l-5.28-7v10H4V5.28A6.9 6.9 0 003.34 2 2.58 2.58 0 00.88.88H0V0h4a5.51 5.51 0 012.4.42 2.45 2.45 0 011.17 1.52 11.89 11.89 0 01.35 3.34v13l5.5-7a8.82 8.82 0 012.42-2.14 6.67 6.67 0 013.3-.72h1.32v1.1a5.67 5.67 0 00-2.29.48 4.94 4.94 0 00-1.89 1.5l-4.84 6.1 5.5 7a13 13 0 002.4 2.51 5.53 5.53 0 002.44 1.05V29a5.33 5.33 0 01-2.2.44A7.79 7.79 0 0113.2 26zM31 28.05a9.15 9.15 0 01-3.34-3.9 12.82 12.82 0 01-1.14-5.45 12.86 12.86 0 011.14-5.46A9.12 9.12 0 0131 9.35a9.36 9.36 0 015.2-1.43 9.35 9.35 0 015.19 1.43 9.12 9.12 0 013.34 3.89 12.86 12.86 0 011.14 5.46 12.82 12.82 0 01-1.14 5.45 9.15 9.15 0 01-3.34 3.9 9.35 9.35 0 01-5.19 1.43 9.36 9.36 0 01-5.2-1.43zm8.08-1.52A7.71 7.71 0 0041 23.27a14.33 14.33 0 00.68-4.57 14.44 14.44 0 00-.68-4.58 7.67 7.67 0 00-1.93-3.25 4.09 4.09 0 00-5.77 0 7.67 7.67 0 00-1.93 3.25 14.44 14.44 0 00-.68 4.58 14.33 14.33 0 00.68 4.57 7.71 7.71 0 001.93 3.26 4.09 4.09 0 005.77 0zm14.64 1.67l11.44-18.08H60.1a6.81 6.81 0 00-4.11 1 3.43 3.43 0 00-1.39 2.93h-.88v-2.2q0-3.53 3.74-3.52h13.42L59 27.28h11.88V29H53.72zm26.35-14.56a6.92 6.92 0 00-.61-3.32A2.6 2.6 0 0077 9.24h-.88v-.88h4a5.63 5.63 0 012.49.44 2.63 2.63 0 011.25 1.32H84a7.56 7.56 0 012.4-1.56 8.19 8.19 0 013.32-.64 8.09 8.09 0 015.39 1.76c1.39 1.17 2.09 3.23 2.09 6.16V29h-4V15.84a6.31 6.31 0 00-1.38-4.51 4.65 4.65 0 00-3.39-1.43A5.93 5.93 0 0084 12.23V29h-4zm30.23 14.41a9 9 0 01-3.13-3.87 13.77 13.77 0 01-1-5.48 13.81 13.81 0 011-5.46 9.1 9.1 0 013.06-3.89 7.9 7.9 0 014.69-1.43q4.44 0 6.62 2.49t2.18 7.19l-.09 1.76H110.3a10.59 10.59 0 001.58 6 5 5 0 004.36 2.33 6.63 6.63 0 003.5-.88 9.36 9.36 0 002.66-2.64l.88.66a9.59 9.59 0 01-3.39 3.52 9 9 0 01-4.53 1.1 8.7 8.7 0 01-5.06-1.4zm9.24-10.45a12.13 12.13 0 00-1.15-5.9 3.73 3.73 0 00-3.47-2 3.33 3.33 0 00-2.38 1 7 7 0 00-1.65 2.84 13.07 13.07 0 00-.59 4.05zm14.17-4.18a11.76 11.76 0 00-2-3.45 3.7 3.7 0 00-2.55-1.08V8h.64a8.4 8.4 0 015.08 1.12 9.11 9.11 0 013.25 4.34l4 9.46 6.16-14.52h2.2l-9 21.12h-.88zM30.55 40.94a2.23 2.23 0 00-.19-1.06.83.83 0 00-.79-.34h-.28v-.28h1.26a1.87 1.87 0 01.81.14.8.8 0 01.38.49h.07a2 2 0 01.72-.55 2.66 2.66 0 011.17-.22 2.1 2.1 0 011.86 1 4.29 4.29 0 01.66 2.46 4.11 4.11 0 01-.68 2.42 2.25 2.25 0 01-2 1 3.85 3.85 0 01-.94-.11 5.38 5.38 0 01-.81-.31v2.92h-1.24zm3.92 3.69a4.39 4.39 0 00.42-2.08 4.59 4.59 0 00-.4-2.08 1.3 1.3 0 00-1.21-.79 1.67 1.67 0 00-1.47.84V45c.28.13.52.23.73.31a1.91 1.91 0 00.6.11 1.41 1.41 0 001.33-.79zM39 38.28a2.23 2.23 0 00-.19-1.06.82.82 0 00-.79-.34h-.28v-.28H39a1.74 1.74 0 01.78.13.77.77 0 01.37.48 3.63 3.63 0 01.11 1.07v1.54a2.44 2.44 0 01.77-.5 2.69 2.69 0 011-.2 2.54 2.54 0 011.72.56 2.45 2.45 0 01.66 2v4.2h-1.22v-4.2a2 2 0 00-.44-1.44 1.47 1.47 0 00-1.1-.45 1.87 1.87 0 00-1.4.74v5.35H39zm9.57 7.24a2.8 2.8 0 01-1.06-1.24 4.25 4.25 0 010-3.47 2.91 2.91 0 011.06-1.24 3 3 0 011.65-.45 2.87 2.87 0 012.72 1.69 4.36 4.36 0 010 3.47 2.82 2.82 0 01-1.07 1.24 2.88 2.88 0 01-1.65.46 2.92 2.92 0 01-1.65-.46zm2.57-.52a2.47 2.47 0 00.62-1 4.75 4.75 0 00.24-1.45 4.81 4.81 0 00-.21-1.46 2.43 2.43 0 00-.62-1 1.27 1.27 0 00-.92-.38 1.25 1.25 0 00-.91.38 2.33 2.33 0 00-.62 1 4.52 4.52 0 00-.22 1.46 4.46 4.46 0 00.19 1.45 2.37 2.37 0 00.62 1 1.29 1.29 0 00.91.38 1.31 1.31 0 00.92-.38zm5.63.53a1.91 1.91 0 01-.44-1.37v-4.34h-1v-.56h1V38l.7-.84h.56v2.1h1.68v.56h-1.68v4.34c0 .84.32 1.26 1 1.26a2.19 2.19 0 00.56-.07 2.89 2.89 0 00.49-.21l.14.28a3.59 3.59 0 01-.72.4A2.89 2.89 0 0158 46a1.67 1.67 0 01-1.23-.47zm6.23-.01a2.86 2.86 0 01-1.06-1.24 4.25 4.25 0 010-3.47 2.84 2.84 0 012.71-1.69 3 3 0 011.66.45 3 3 0 011.06 1.24 4.36 4.36 0 010 3.47 2.86 2.86 0 01-1.06 1.24 3.21 3.21 0 01-3.31 0zm2.53-.52a2.47 2.47 0 00.62-1 4.75 4.75 0 00.21-1.45 4.81 4.81 0 00-.21-1.46 2.43 2.43 0 00-.62-1 1.27 1.27 0 00-.92-.38 1.25 1.25 0 00-.91.38 2.43 2.43 0 00-.62 1 4.81 4.81 0 00-.22 1.46 4.74 4.74 0 00.22 1.45 2.47 2.47 0 00.62 1 1.29 1.29 0 00.91.38 1.31 1.31 0 00.92-.38zm5.11 3.12a1.8 1.8 0 01-.83-1.65 1.6 1.6 0 01.43-1.12 2.55 2.55 0 011.11-.7.93.93 0 01-.56-.84.72.72 0 01.12-.44 2.57 2.57 0 01.37-.33 1.93 1.93 0 01-.75-.7 2.06 2.06 0 01-.3-1.12c0-1.4.88-2.1 2.66-2.1h2.59v.35l-.91.14v.07a1.82 1.82 0 01.7.62 1.54 1.54 0 01.28.92c0 1.4-.89 2.1-2.66 2.1-1 0-1.47.16-1.47.49s.49.49 1.47.49a4.15 4.15 0 012.22.54 2 2 0 010 3.28 5.11 5.11 0 01-4.49 0zm3.58-.44a1.49 1.49 0 00.49-1.21c0-.94-.56-1.47-1.68-1.61l-.77-.07a2 2 0 00-.88.63 1.66 1.66 0 00-.31 1 1.46 1.46 0 00.49 1.21 2.41 2.41 0 002.66 0zm-.32-5.24a1.64 1.64 0 00.39-1.22A1.69 1.69 0 0073.9 40a1.31 1.31 0 00-1-.4 1.41 1.41 0 00-1 .38 1.72 1.72 0 00-.38 1.23 1.68 1.68 0 00.38 1.22 1.38 1.38 0 001 .39 1.34 1.34 0 001-.38zm4.67-1.5a2.23 2.23 0 00-.19-1.06.84.84 0 00-.79-.34h-.14v-.28h1.12a1.9 1.9 0 01.81.14.8.8 0 01.38.49h.07a2.08 2.08 0 01.68-.55 2.11 2.11 0 011-.22 1.41 1.41 0 01.84.21 2 2 0 01.49.63l-.56.42a.9.9 0 00-.45-.32 2 2 0 00-.67-.1 1.54 1.54 0 00-.77.19 1.45 1.45 0 00-.56.51v5.18h-1.26zm7.22 4.85a2 2 0 01-.79-.62 1.87 1.87 0 01-.33-1.17 1.54 1.54 0 011-1.51 6.3 6.3 0 012.59-.45h.42a3.34 3.34 0 00-.38-1.88 1.3 1.3 0 00-1.09-.5 1.78 1.78 0 00-1 .26 1.46 1.46 0 00-.53.93H85a3.76 3.76 0 010-.75 1 1 0 01.3-.51 1.57 1.57 0 01.83-.37 6.2 6.2 0 011.26-.12 2.53 2.53 0 011.8.61 3.14 3.14 0 01.65 2.33v3.78h-.7l-.48-.63h-.07a2 2 0 01-.75.54 2.87 2.87 0 01-1.21.23 2.57 2.57 0 01-.84-.17zm2.31-.67a2.24 2.24 0 00.57-.61v-1.89h-.42a3.06 3.06 0 00-1.64.38 1.18 1.18 0 00-.61 1 1.22 1.22 0 00.39 1 1.37 1.37 0 00.94.35 1.26 1.26 0 00.77-.23zm5.1-4.18a2.21 2.21 0 00-.2-1.06.81.81 0 00-.78-.34h-.28v-.28h1.26a1.93 1.93 0 01.81.14.8.8 0 01.38.49h.07a2 2 0 01.71-.55 2.7 2.7 0 011.18-.22 2.11 2.11 0 011.86 1 4.29 4.29 0 01.66 2.46 4.18 4.18 0 01-.68 2.42 2.25 2.25 0 01-2 1 3.79 3.79 0 01-.94-.11 5.38 5.38 0 01-.81-.31v2.92H93.2zm3.91 3.69a4.26 4.26 0 00.43-2.08 4.45 4.45 0 00-.41-2.08 1.28 1.28 0 00-1.2-.79 1.66 1.66 0 00-1.47.84V45c.28.13.52.23.73.31a1.81 1.81 0 00.6.11 1.39 1.39 0 001.32-.79zm4.53-6.35a2.23 2.23 0 00-.19-1.06.83.83 0 00-.79-.34h-.28v-.28h1.26a1.74 1.74 0 01.78.13.77.77 0 01.37.48 3.63 3.63 0 01.11 1.07v1.54a2.44 2.44 0 01.77-.5 2.69 2.69 0 011-.2 2.56 2.56 0 011.72.56 2.45 2.45 0 01.66 2v4.2h-1.26v-4.2a2 2 0 00-.44-1.44 1.47 1.47 0 00-1.1-.45 1.87 1.87 0 00-1.4.74v5.35h-1.26zm9.48 7.24a2.74 2.74 0 01-1-1.23 4.62 4.62 0 010-3.48 2.93 2.93 0 011-1.24 2.5 2.5 0 011.49-.45 2.65 2.65 0 012.11.79 3.39 3.39 0 01.69 2.29v.56h-4.24a3.34 3.34 0 00.51 1.92 1.58 1.58 0 001.38.74 2.12 2.12 0 001.11-.28 2.94 2.94 0 00.85-.84l.28.21a3.15 3.15 0 01-1.08 1.12 2.9 2.9 0 01-1.44.35 2.73 2.73 0 01-1.66-.46zm2.94-3.32a3.94 3.94 0 00-.36-1.88 1.19 1.19 0 00-1.11-.64 1.07 1.07 0 00-.76.33 2.3 2.3 0 00-.52.9 4 4 0 00-.19 1.29zm4.17-1.26a2.23 2.23 0 00-.19-1.06.82.82 0 00-.79-.34h-.14v-.28h1.12a1.87 1.87 0 01.81.14.8.8 0 01.38.49h.07a2.08 2.08 0 01.68-.55 2.14 2.14 0 011-.22 1.37 1.37 0 01.84.21 2 2 0 01.49.63l-.56.42a.92.92 0 00-.44-.32 2 2 0 00-.68-.1 1.57 1.57 0 00-.77.19 1.45 1.45 0 00-.56.51v5.18h-1.26z"/><circle fill="currentColor" cx="18.51" cy="4.79" r="2.05"/></symbol><symbol id="long-arrow" viewBox="0 0 42.51 15.34"><path fill="currentColor" d="M27.32 15.34l3.15-6.5 1.35.65L30.6 12l8.58-4.33-8.58-4.33 1.22 2.51-1.35.65L27.32 0l15.19 7.67-15.19 7.67z"/><path fill="currentColor" d="M0 6.92h28.86v1.5H0z"/></symbol><symbol id="minus" viewBox="0 0 20 1.5"><rect fill="currentColor" width="20" height="1.5"/></symbol><symbol id="mouse" viewBox="0 0 25.15 41.5"><path fill="3d404e" d="M12.58 33.85l-5.54-4.83.99-1.13 4.55 3.97 4.54-3.97.99 1.13-5.53 4.83z"/><path fill="currentColor" d="M12.58 41.5A12.59 12.59 0 010 28.92V12.58a12.58 12.58 0 1125.15 0v16.34A12.59 12.59 0 0112.58 41.5zm0-40A11.09 11.09 0 001.5 12.58v16.34a11.08 11.08 0 1022.15 0V12.58A11.08 11.08 0 0012.58 1.5z"/><path fill="currentColor" d="M12.58 27.53l-5.54-4.82.99-1.13 4.55 3.96 4.54-3.96.99 1.13-5.53 4.82z"/></symbol><symbol id="pause" viewBox="0 0 23.54 44"><path class="currentColor" d="M0 0h2v44H0zm21.54 0h2v44h-2z"/></symbol><symbol id="phone" viewBox="0 0 29.02 29.02"><path d="M26 29a26 26 0 01-18.43-7.55A26.09 26.09 0 01.08.94L.15 0h1s6 .11 7.19.11h.86l.8 8.33-4.82 3.4L4 10.2l3.9-2.73-.51-5.35L2 2a24 24 0 007 18 24.05 24.05 0 0018 7c0-1.38-.06-3.91-.08-5.37l-5.36-.52L18.81 25l-1.63-1.15 3.4-4.85 8.31.81v.9c0 1.19.11 7.2.11 7.2v.94l-.94.08c-.68.07-1.37.07-2.06.07z" fill="currentColor"/></symbol><symbol id="photobook-types1" viewBox="0 0 140 123.05"><title>32 &#x412;&#x44B;&#x43F;&#x443;&#x441;&#x43A;&#x43D;&#x44B;&#x435; &#x444;&#x43E;&#x442;&#x43E;&#x43A;&#x43D;&#x438;&#x433;&#x438;</title><path class="cls-1" d="M140,96v-7H120.68V84h-2.45v-4.5h-2V84H34.62a8.19,8.19,0,1,1,0-16.37H59.17v-2H34.62a10.19,10.19,0,1,0,0,20.37h84.06v2.92H34.43a13.11,13.11,0,1,1,0-26.22h8.62v-2H34.43A15.1,15.1,0,0,0,27,88.94h-9.9a17.06,17.06,0,0,0,0,34.11H140v-7h-5.52V96Zm-2,25.08H17.05a15.06,15.06,0,0,1,0-30.11H138v3H17.32a12,12,0,1,0,0,24H138Zm-5.52-12.36H20.32v2H132.48V116H17.32a10,10,0,1,1,0-20H132.48Z"/><rect class="cls-1" x="15.28" y="102.14" width="52.67" height="2"/><rect class="cls-1" x="103.44" y="60.72" width="13.79" height="2"/><rect class="cls-1" x="86.66" y="65.65" width="29.35" height="2"/><path class="cls-2" d="M127.5,49.52A6.77,6.77,0,0,0,122,42.87v-8.7L116,31.86l20.14-7.76L74,.14,73.62,0,11.05,24.1l31.1,12h-.36V62.56l.63.25a81.16,81.16,0,0,0,30.57,6,81.23,81.23,0,0,0,30.57-6l.62-.25V36.42l9.09-3.5,6.7,2.61v7.26a6.76,6.76,0,0,0-2.76,12.5L110.77,79.4h19.92l-6.43-24.11A6.77,6.77,0,0,0,127.5,49.52ZM102.18,61.21a78.87,78.87,0,0,1-58.39,0V36.7L73.26,48.05l.36.14,28.56-11ZM73.62,46.05l-57-21.95,57-22,57,22-17.35,6.68L74,15.48l-.72,1.86L110.5,31.85Zm47.11-1.3A4.77,4.77,0,1,1,116,49.52,4.78,4.78,0,0,1,120.73,44.75Zm7.35,32.65h-14.7l5.69-21.33a6.52,6.52,0,0,0,1.66.22,6.59,6.59,0,0,0,1.67-.22Z"/></symbol><symbol id="photobook-types2" viewBox="0 0 139 93.82"><title>33 33 &#x424;&#x43E;&#x442;&#x43E;&#x43A;&#x43D;&#x438;&#x433;&#x438; &#x418;&#x43D;&#x441;&#x442;&#x430;&#x433;&#x440;&#x430;&#x43C;</title><path class="cls-1" d="M80,92.82"/><path class="cls-1" d="M87.24,92.82"/><path class="cls-1" d="M76.22,92.82"/><path class="cls-2" d="M65.55,24.68"/><path class="cls-3" d="M54.6,54.16H33.68a4.28,4.28,0,0,1-3.53-1.65,4.63,4.63,0,0,1-.61-4.09l6-20.92a7.34,7.34,0,0,1,6.7-5.18H63.15A4.35,4.35,0,0,1,66.73,24a4.6,4.6,0,0,1,.62,4.07L61.3,49A7.36,7.36,0,0,1,54.6,54.16ZM42.24,24.32a5.42,5.42,0,0,0-4.78,3.73L31.46,49a2.61,2.61,0,0,0,.29,2.34,2.34,2.34,0,0,0,1.93.85H54.6a5.42,5.42,0,0,0,4.78-3.74L65.43,27.5a2.59,2.59,0,0,0-.3-2.31,2.38,2.38,0,0,0-2-.87Z"/><path class="cls-3" d="M45.88,48.08a7.52,7.52,0,0,1-6.22-2.86,8.08,8.08,0,0,1-1-7.26c1.51-5.28,7-9.57,12.35-9.57a7.58,7.58,0,0,1,6.22,2.86,8.12,8.12,0,0,1,1,7.26C56.71,43.79,51.18,48.08,45.88,48.08ZM51,30.39c-4.47,0-9.15,3.64-10.43,8.12a6.12,6.12,0,0,0,.73,5.5,5.55,5.55,0,0,0,4.62,2.07c4.46,0,9.14-3.64,10.42-8.12h0a6.12,6.12,0,0,0-.72-5.5A5.58,5.58,0,0,0,51,30.39Z"/><path class="cls-3" d="M60.37,31a2.35,2.35,0,0,1-1.88-.89A2.44,2.44,0,0,1,58.15,28a3.56,3.56,0,0,1,3.24-2.5,2.32,2.32,0,0,1,1.88.89,2.43,2.43,0,0,1,.34,2.16h0A3.55,3.55,0,0,1,60.37,31Zm1-3.54a1.56,1.56,0,0,0-1.32,1.05.49.49,0,0,0,0,.39.34.34,0,0,0,.28.1,1.55,1.55,0,0,0,1.32-1,.52.52,0,0,0,0-.4A.4.4,0,0,0,61.39,27.46Z"/><path class="cls-2" d="M7.06,90.19"/><path class="cls-2" d="M7.9,88.6"/><path class="cls-2" d="M30.27,10.13"/><path class="cls-2" d="M27.58,7.68"/><path class="cls-3" d="M74.79,91.19H10a7.33,7.33,0,0,1-6.41-4.71,4.21,4.21,0,0,1,.32-3.88A3.71,3.71,0,0,1,7,81.09H71.84v2H7a1.73,1.73,0,0,0-1.5.66,2.22,2.22,0,0,0-.08,2A5.38,5.38,0,0,0,10,89.19H74.79Z"/><path class="cls-3" d="M75,91.19a7.37,7.37,0,0,1-6.47-4.71l1.88-.68A5.42,5.42,0,0,0,75,89.19Z"/><path class="cls-3" d="M68.55,86.48a4.17,4.17,0,0,1,.33-3.87,3.74,3.74,0,0,1,3.19-1.52v2a1.84,1.84,0,0,0-1.56.67,2.26,2.26,0,0,0-.08,2Z"/><path class="cls-3" d="M76.9,93.82H10.48c-4,0-8.52-3.29-10-7.34A6.93,6.93,0,0,1,.23,82.2h0L26.42,3.62A5.24,5.24,0,0,1,31.78,0H94.56l.78,3.65L94.69,6.1a2.74,2.74,0,0,0,.47,2.35,2.35,2.35,0,0,0,1.87,1h.68l.28.62,1.68,4.25ZM5.62,80.47a3.54,3.54,0,0,0-3,1.37,4.32,4.32,0,0,0-.21,4c1.18,3.26,4.9,6,8.11,6H75.39L97.56,14.4l-1.2-3a4.4,4.4,0,0,1-2.79-1.69,4.81,4.81,0,0,1-.8-1.62L72,80.47ZM31.78,2a3.26,3.26,0,0,0-3.47,2.27l0,.13L3.46,78.81a6.52,6.52,0,0,1,2.16-.34H70.53L92.43,2Z"/><path class="cls-4" d="M139,73.74V68H121.6a11.43,11.43,0,0,0-.06-18.89h4.27V43.49h-3.5V31.86h3.5V26.22H100.92l-.57,2h23.47v1.65H99.87l-.56,2h21V43.49H96l-.57,2h28.41v1.65H94.94l-.57,2h20.74A9.46,9.46,0,0,1,115.8,68h-.53v0H89l-.57,2h26.72c.23,0,.46,0,.69,0H137v1.73H87.91l-.57,2h45.57V88.1H83.24l-.57,2H137v1.73H82.17l-.57,2H139V88.1h-4.1V73.74Z"/><path class="cls-4" d="M122.77,58.6a7.81,7.81,0,0,0-7.8-7.81H93.9l-.57,2H115a5.82,5.82,0,0,1,0,11.63H90l-.57,2H115A7.81,7.81,0,0,0,122.77,58.6Z"/></symbol><symbol id="photobook-types3" viewBox="0 0 139.4 121.33"><title>34 &#x424;&#x43E;&#x442;&#x43E;&#x43A;&#x43D;&#x438;&#x433;&#x438; &#x43D;&#x430; &#x44E;&#x431;&#x438;&#x43B;&#x435;&#x439;</title><polygon class="cls-1" points="68.97 81.5 59.86 81.5 52.8 92.66 52.8 96.36 60.95 83.48 66.99 83.48 66.99 107.04 71.27 107.04 71.27 111.11 66.99 111.11 66.99 119.28 61.47 119.28 61.47 111.11 52.8 111.11 52.8 113.08 59.49 113.08 59.49 121.26 68.97 121.26 68.97 113.08 73.25 113.08 73.25 105.06 68.97 105.06 68.97 81.5"/><path class="cls-1" d="M61.47,89l-1.85,3.21L52.8,103.11V107h8.67Zm-2,16H53.92l5.57-8.84Z"/><path class="cls-1" d="M100.65,99l-.59-.79c-.13-.17-.26-.34-.4-.49A11.87,11.87,0,0,0,90.47,94a13,13,0,0,0-4.5.8l.64-5.51h6.83L92,87.3H84.84L83.59,98.18l1.67-.89A10.92,10.92,0,0,1,90.47,96c3.34,0,5.87,1,7.73,3s2.8,5,2.8,8.7a12.79,12.79,0,0,1-1.43,6.09,9.81,9.81,0,0,1-4,4.09,12.93,12.93,0,0,1-6.31,1.47,13.76,13.76,0,0,1-5.94-1.3,10.34,10.34,0,0,1-4.23-3.56,9.59,9.59,0,0,1-1.56-4.19H83a5.94,5.94,0,0,0,6.2,5,5.59,5.59,0,0,0,4.71-2.22,9.5,9.5,0,0,0,1.57-5.77,8,8,0,0,0-1.84-5.61,6.81,6.81,0,0,0-5.22-2,7.44,7.44,0,0,0-5,1.67l-.34.31-4.6-1.14,2-17.46h8.31l-1.48-2h-8.6L76.31,102l7.33,1.82,1.09-1a5.52,5.52,0,0,1,3.69-1.17,4.82,4.82,0,0,1,3.76,1.4,6.09,6.09,0,0,1,1.32,4.26,7.59,7.59,0,0,1-1.17,4.58,3.66,3.66,0,0,1-3.13,1.43,4.21,4.21,0,0,1-3-1,4.5,4.5,0,0,1-1.34-3l-.09-.89H75.41l0,1a11.57,11.57,0,0,0,2,6.26,12.23,12.23,0,0,0,5,4.24,15.64,15.64,0,0,0,6.78,1.49,14.83,14.83,0,0,0,7.27-1.72,11.89,11.89,0,0,0,4.82-4.89,14.79,14.79,0,0,0,1.66-7A15.35,15.35,0,0,0,100.65,99Z"/><rect class="cls-2" x="6.86" y="111.74" width="15.36" height="2"/><rect class="cls-2" x="6.86" y="107.19" width="15.36" height="2"/><rect class="cls-2" x="32.91" y="111.74" width="11.98" height="2"/><rect class="cls-2" x="32.91" y="107.19" width="11.98" height="2"/><rect class="cls-2" x="6.86" y="17.42" width="15.36" height="2"/><rect class="cls-2" x="32.91" y="7.52" width="11.98" height="2"/><path class="cls-2" d="M139.4,108.08,66.83,10.85l-17,12.68V0H27.08V9.9H0V121.33H49.84V25.1l71.81,96.23ZM27.08,119.33H2V11.9H27.08Zm20.76,0H29.08V2H47.84ZM66.42,13.65l70.18,94-14.54,10.85-70.18-94Z"/><rect class="cls-2" x="57.34" y="23.3" width="11.43" height="2" transform="matrix(0.8, -0.6, 0.6, 0.8, -2.02, 42.53)"/><rect class="cls-2" x="119.68" y="106.82" width="11.42" height="2" transform="matrix(0.8, -0.6, 0.6, 0.8, -39.59, 96.38)"/><rect class="cls-2" x="116.95" y="103.17" width="11.43" height="2" transform="matrix(0.8, -0.6, 0.6, 0.8, -37.95, 94.03)"/></symbol><symbol id="photobook-types4" viewBox="0 0 139.98 115.59"><title>35 &#x421;&#x432;&#x430;&#x434;&#x435;&#x431;&#x43D;&#x44B;&#x435; &#x444;&#x43E;&#x442;&#x43E;&#x43A;&#x43D;&#x438;&#x433;&#x438;</title><path class="cls-1" d="M64.26,55.74"/><path class="cls-1" d="M74.37,55.74"/><path class="cls-1" d="M74.58,114.18"/><path class="cls-2" d="M70,39.89"/><path class="cls-3" d="M130,41.6h-8.27l-.24-1.85-.35-.63a37.25,37.25,0,0,0-23.74-9v2a35.22,35.22,0,0,1,22.17,8.34l8.19,60.9a47.85,47.85,0,0,0-43.25-4.58L69.92,102.4,55.33,96.73a47.59,47.59,0,0,0-43.27,4.76l8.22-61.08a35.18,35.18,0,0,1,22.3-8.34v-2a37.24,37.24,0,0,0-23.87,9l-.35.63L18.1,41.6H10l-10,69H.09v5H63.45l.3-.32a8.58,8.58,0,0,1,12.5,0l.3.32h63.36v-5H140ZM11.7,43.6h6.13l-8,59.67,1,1.14H11l.58-.19a45.58,45.58,0,0,1,43-5.62l14.77,5.74.36.07h.36l.36-.07L85.23,98.6a45.86,45.86,0,0,1,43.24,5.62l1.58-1L122,43.6h6.27l9.63,66.59H77.42a10.27,10.27,0,0,0-14.84,0H2.07Zm126.21,70H77.4a10.58,10.58,0,0,0-14.8,0H2.09v-1.4H63.47l.3-.34a8.26,8.26,0,0,1,12.45,0l.3.34h61.39Z"/><path class="cls-4" d="M100.79,71.5h0l-4.08-61L96.63,10C95.57,5.7,92,2.23,87.06.74c-6.33-1.91-13.29,0-17.14,4.48C66.08.71,59.11-1.17,52.78.74c-5.16,1.56-8.87,5.37-9.71,10l0,.53L39.16,70.59a12.26,12.26,0,0,0,.9,6.76c3.09,7.05,28.21,26.13,29.27,26.93l.61.46.6-.46c1.07-.8,26.15-19.88,29.24-26.93A12.3,12.3,0,0,0,100.79,71.5ZM86.48,2.66c4.25,1.28,7.32,4.21,8.2,7.82l0,.24L98.36,65a16.59,16.59,0,0,0-8.77-6c-6.73-2-14.08-.31-18.6,4.09V7.1C74.2,2.76,80.63.89,86.48,2.66ZM69.92,64.2l0,0H70ZM45,11.44l0-.41c.69-3.82,3.87-7,8.31-8.37C59.3.86,65.83,2.81,69,7.28v55.9C64.48,58.69,57.05,56.91,50.25,59a16.66,16.66,0,0,0-8.72,6ZM41.89,76.55a10.4,10.4,0,0,1-.84-4.92h.05l0-.82A10.84,10.84,0,0,1,42,68.08a14,14,0,0,1,8.86-7.2,18.08,18.08,0,0,1,5.22-.77c5.23,0,10.19,2.26,12.94,6.18V101.5C63.38,97.16,44.36,82.17,41.89,76.55Zm56.06,0c-2.17,5-17.73,17.76-27,24.87V66.1C74.7,61,82.2,58.82,89,60.88a14,14,0,0,1,8.86,7.2A10.18,10.18,0,0,1,98,76.55Z"/></symbol><symbol id="photobook-types5" viewBox="0 0 140 112.06"><title>36 &#x414;&#x435;&#x442;&#x441;&#x43A;&#x438;&#x435; &#x444;&#x43E;&#x442;&#x43E;&#x43A;&#x43D;&#x438;&#x433;&#x438;</title><path class="cls-1" d="M89.3,4.55A8,8,0,0,0,76,2.88a9.28,9.28,0,0,1-4.87,3.19L66.86,7.13,65.3.91l-1.94.48,1.56,6.24a9,9,0,0,0-2.85-2A8.9,8.9,0,1,0,66.6,17.36,9.53,9.53,0,0,0,67,16.09l1.64,6.55,1.94-.48-1.56-6.22,4.24-1.06a9,9,0,0,1,5.72.49,7.9,7.9,0,0,0,5,.38A8,8,0,0,0,89.3,4.55ZM65.05,11.88a4.92,4.92,0,0,1,.23.81v.07a4.32,4.32,0,0,1-2.71,4.73A4.34,4.34,0,0,1,59.45,9.4,4.25,4.25,0,0,1,61,9.11,4.35,4.35,0,0,1,65.05,11.88Zm-4.11,8.31A6.89,6.89,0,0,1,52.16,11,6.83,6.83,0,0,1,56,7.32a6.93,6.93,0,0,1,2.48-.46,7.05,7.05,0,0,1,1.94.28,6.64,6.64,0,0,0-1.67.39A6.34,6.34,0,0,0,61,19.78a6.22,6.22,0,0,0,.95-.09A7.53,7.53,0,0,1,60.94,20.19ZM87.5,10.57a6,6,0,0,1-7.71,2.95,11.07,11.07,0,0,0-7-.58L68.58,14,67.34,9.07,71.58,8A11.39,11.39,0,0,0,77.5,4.16,5.94,5.94,0,0,1,81.65,2a6,6,0,0,1,5.85,8.55Z"/><path class="cls-2" d="M140,85V78H113.05a15.1,15.1,0,0,0-7.48-28.22h0V44.81h-2.45V28.43h2.45V21.51H34.43A15.1,15.1,0,0,0,27,49.74H19.32v6.92h2.45V73H19.32V78H17.05a17.05,17.05,0,0,0,0,34.1H140v-7h-5.52V85Zm-2-5v3H45.33V80H138ZM101.11,44.81H34.62a8.19,8.19,0,1,1,0-16.38h66.49ZM21.32,36.62A13.12,13.12,0,0,1,34.43,23.51h69.13v2.92H34.62a10.19,10.19,0,1,0,0,20.38h68.94v2.93H34.43A13.12,13.12,0,0,1,21.32,36.62Zm0,15.12h84.25a13.11,13.11,0,1,1,0,26.22H45.33V75h60.05a10.19,10.19,0,0,0,0-20.38H21.32Zm2.45,4.92h81.61a8.19,8.19,0,0,1,0,16.38h-60V62.91H62.91v-2H31.24V73H23.77Zm19.56,6.25V86.15l-5-5.74-5,5.74V62.91ZM21.32,75h9.92V78H21.32Zm116.68,35H17.05a15,15,0,0,1,0-30.1H31.24v3H17.32a12,12,0,0,0,0,24.06H138Zm-5.52-5H17.32a10,10,0,0,1,0-20.06H31.24v6.47l7.05-8,7,8V85h87.15Z"/><rect class="cls-2" x="20.32" y="97.71" width="87.95" height="2"/><rect class="cls-2" x="70.73" y="91.15" width="52.67" height="2"/></symbol><symbol id="play" viewBox="0 0 36.04 43.54"><path fill="#fffcfc" d="M0 43.55v-6.23h2V40l30.17-18.23L2 3.54v25.42l14.06-7.37-7.31-4.37 1.03-1.72 10.37 6.2L0 32.27V0l36.04 21.77L0 43.55z"/></symbol><symbol id="plus" viewBox="0 0 20 20"><polygon fill="currentColor" points="20 9.25 10.75 9.25 10.75 0 9.25 0 9.25 9.25 0 9.25 0 10.75 9.25 10.75 9.25 20 10.75 20 10.75 10.75 20 10.75 20 9.25"/></symbol><symbol id="time" viewBox="0 0 13.5 13.5"><path class="cls-1" d="M6.75 13.5a6.75 6.75 0 116.75-6.75 6.76 6.76 0 01-6.75 6.75zm0-12A5.25 5.25 0 1012 6.75 5.26 5.26 0 006.75 1.5z"/><path class="cls-1" d="M6.75 2.69v4.06h4.06a6.64 6.64 0 00-4.06-4.06z"/></symbol><symbol id="whatsapp" viewBox="0 0 25 25"><path d="M21.36 3.63C13.37-4.15.11 1.47.11 12.39a12.32 12.32 0 001.66 6.19L0 25l6.6-1.72A12.47 12.47 0 0025 12.4a12.3 12.3 0 00-3.64-8.77zm-2.72 13.12a3.19 3.19 0 01-2.1 1.48 4.36 4.36 0 01-2-.12c-2.75-.95-4.26-1.63-7.08-5.33-1.44-2-1.87-3.93-.18-5.78a1.55 1.55 0 011.42-.36c.19 0 .45-.08.7.53s.88 2.14 1 2.3a.56.56 0 010 .54c-.58 1.1-1.22 1.18-.92 1.71a9.7 9.7 0 001.73 2.15 8.47 8.47 0 002.5 1.55c.31.14.5.12.68-.08a15 15 0 001-1.21c.3-.44.54-.29 2.83.85v-.08c.31.14.51.22.59.36a2.55 2.55 0 01-.17 1.49z" fill="currentColor"/></symbol></svg>